<?xml version="1.0" encoding="UTF-8"?>
<svg id="Top" xmlns="http://www.w3.org/2000/svg" version="1.1" viewBox="0 0 194.76 195.26">
  <!-- Generator: Adobe Illustrator 29.6.1, SVG Export Plug-In . SVG Version: 2.1.1 Build 9)  -->
  <defs>
    <style>
      .st0 {
        stroke-width: 2px;
      }

      .st0, .st1 {
        fill: red;
        stroke: red;
        stroke-miterlimit: 10;
        opacity: 0.9;
        <!-- mix-blend-mode: lighten; -->
        filter: invert(100%) saturate(0.7) hue-rotate(2000deg) brightness(1.2) contrast(1.2);
      }

      .st1 {
        stroke-width: 5px;
      }
      
      /* Theme-aware styling */
      @media (prefers-color-scheme: dark) {
        .st0, .st1 {
          filter: invert(0%) saturate(0.2);
        }
      }
    </style>
  </defs>
  <path class="st1" d="M53.55,141.57c-.31,0-.62-.11-.86-.34-12.48-11.83-19.35-27.81-19.35-45,0-34.18,27.81-61.99,61.99-61.99s61.99,27.81,61.99,61.99c0,.69-.56,1.25-1.25,1.25s-1.25-.56-1.25-1.25c0-32.8-26.68-59.48-59.48-59.48s-59.48,26.68-59.48,59.48c0,16.49,6.59,31.83,18.57,43.18.5.48.52,1.27.05,1.77-.25.26-.58.39-.91.39h-.02Z"/>
  <path class="st1" d="M135.99,97.48c-.69,0-1.25-.56-1.25-1.25,0-21.74-17.68-39.42-39.42-39.42-8.02,0-15.73,2.39-22.31,6.92-4.4,3.03-8.09,6.84-10.96,11.34-.37.58-1.15.76-1.73.38-.58-.37-.76-1.15-.38-1.73,3.05-4.79,6.97-8.84,11.65-12.06,7-4.81,15.2-7.36,23.73-7.36,23.12,0,41.93,18.81,41.93,41.93,0,.69-.56,1.25-1.25,1.25h0Z"/>
  <path class="st1" d="M115.56,97.48c-.69,0-1.25-.56-1.25-1.25,0-5.81-2.61-11.22-7.15-14.85-.54-.43-.63-1.22-.2-1.76s1.22-.63,1.76-.2c5.14,4.11,8.09,10.23,8.09,16.8,0,.69-.56,1.25-1.25,1.25h0Z"/>
  <path class="st0" d="M175.98,100.59h-60.42c-.69,0-1.25-.56-1.25-1.25s.56-1.25,1.25-1.25h60.42c.69,0,1.25.56,1.25,1.25s-.56,1.25-1.25,1.25Z"/>
  <path class="st1" d="M95.53,178.31c-45.21,0-81.99-36.78-81.99-81.99S50.32,14.33,95.53,14.33s81.99,36.78,81.99,81.99c0,.69-.56,1.25-1.25,1.25s-1.25-.56-1.25-1.25c0-43.83-35.66-79.48-79.48-79.48S16.05,52.49,16.05,96.32s35.66,79.48,79.48,79.48c2.71,0,5.45-.14,8.13-.41.7-.06,1.3.43,1.37,1.12s-.43,1.3-1.12,1.37c-2.77.28-5.59.42-8.38.42h0Z"/>
</svg>